<?xml version="1.0" standalone="no"?>
<!DOCTYPE svg PUBLIC "-//W3C//DTD SVG 20010904//EN"
 "http://www.w3.org/TR/2001/REC-SVG-20010904/DTD/svg10.dtd">
<svg version="1.0" xmlns="http://www.w3.org/2000/svg"
 width="261.000000pt" height="261.000000pt" viewBox="0 0 261.000000 261.000000"
 preserveAspectRatio="xMidYMid meet">
<metadata>
Created by potrace 1.11, written by Peter Selinger 2001-2013
</metadata>
<g transform="translate(0.000000,261.000000) scale(0.100000,-0.100000)"
fill="#000000" stroke="none">
<path d="M1223 2282 l-93 -3 0 -114 c0 -85 -3 -115 -12 -116 -250 -10 -431
-83 -566 -228 -92 -99 -170 -266 -188 -401 -61 -477 223 -832 691 -864 39 -2
71 -5 73 -5 1 -1 2 -52 2 -114 l0 -112 180 0 180 0 0 111 c0 81 4 113 13 116
6 3 37 6 67 7 48 2 87 8 167 25 40 8 143 54 200 87 68 41 158 129 206 202 145
218 156 570 25 807 -82 149 -206 256 -365 316 -90 34 -168 48 -300 53 -10 1
-13 31 -13 116 0 63 -3 115 -7 116 -37 3 -186 3 -260 1z m-95 -980 c2 -461 5
-435 -38 -434 -170 3 -300 97 -355 257 -21 60 -28 208 -14 285 14 77 60 170
107 219 61 63 181 111 267 106 l30 -2 3 -431z m536 408 c159 -60 245 -212 240
-427 -6 -227 -113 -370 -305 -405 -121 -23 -109 -70 -109 421 0 235 2 430 5
433 11 11 119 -4 169 -22z"/>
</g>
</svg>
