<?xml version="1.0" standalone="no"?>
<!DOCTYPE svg PUBLIC "-//W3C//DTD SVG 20010904//EN"
 "http://www.w3.org/TR/2001/REC-SVG-20010904/DTD/svg10.dtd">
<svg version="1.0" xmlns="http://www.w3.org/2000/svg"
 width="700.000000pt" height="700.000000pt" viewBox="0 0 700.000000 700.000000"
 preserveAspectRatio="xMidYMid meet">
<metadata>
Created by potrace 1.11, written by Peter Selinger 2001-2013
</metadata>
<g transform="translate(0.000000,700.000000) scale(0.100000,-0.100000)"
fill="#000000" stroke="none">
<path d="M3985 5488 c-2 -7 -232 -902 -510 -1988 -278 -1086 -508 -1983 -511
-1992 -4 -14 1 -18 25 -18 l31 0 0 -310 0 -310 485 0 485 0 0 310 0 310 80 0
c184 0 504 50 684 107 468 148 855 471 1085 905 94 178 173 439 202 668 17
132 17 508 1 615 -35 224 -71 362 -139 530 -240 599 -742 1005 -1408 1140
-204 41 -500 60 -510 33z"/>
</g>
</svg>
